<?xml version="1.0" encoding="utf-8"?>
<!-- Generator: Adobe Illustrator 20.0.0, SVG Export Plug-In . SVG Version: 6.00 Build 0)  -->
<svg version="1.1" id="Layer_1" xmlns="http://www.w3.org/2000/svg" xmlns:xlink="http://www.w3.org/1999/xlink" x="0px" y="0px"
	 viewBox="0 0 91.8 100.1" style="enable-background:new 0 0 91.8 100.1;" xml:space="preserve">
<style type="text/css">
	.st0{fill:#FFFFFF;}
</style>
<path class="st0" d="M91.2,17.3c-0.4-0.4-0.9-0.6-1.5-0.6H69.5L65,5.8c-0.6-1.6-1.8-3-3.5-4.1C59.8,0.6,58.1,0,56.3,0H35.5
	c-1.7,0-3.5,0.6-5.1,1.7c-1.7,1.1-2.9,2.5-3.5,4.1l-4.6,10.9H2.1c-0.6,0-1.1,0.2-1.5,0.6C0.2,17.7,0,18.2,0,18.8v4.2
	c0,0.6,0.2,1.1,0.6,1.5C1,24.8,1.5,25,2.1,25h6.3v62.1c0,3.6,1,6.7,3.1,9.2c2,2.5,4.5,3.8,7.4,3.8H73c2.9,0,5.3-1.3,7.4-3.9
	c2-2.6,3.1-5.8,3.1-9.4V25h6.3c0.6,0,1.1-0.2,1.5-0.6c0.4-0.4,0.6-0.9,0.6-1.5v-4.2C91.8,18.2,91.6,17.7,91.2,17.3L91.2,17.3z
	 M34.5,9.1c0.3-0.4,0.7-0.6,1.1-0.7h20.7c0.4,0.1,0.8,0.3,1.1,0.7l3.1,7.6H31.3L34.5,9.1z M75.1,86.8c0,1-0.2,1.8-0.5,2.6
	c-0.3,0.8-0.6,1.4-0.9,1.8c-0.3,0.4-0.6,0.6-0.7,0.6H18.8c-0.1,0-0.4-0.2-0.7-0.6c-0.3-0.4-0.6-1-0.9-1.8c-0.3-0.8-0.5-1.7-0.5-2.6
	V25h58.4V86.8z M75.1,86.8 M27.1,79.3h4.2c0.6,0,1.1-0.2,1.5-0.6c0.4-0.4,0.6-0.9,0.6-1.5V39.6c0-0.6-0.2-1.1-0.6-1.5
	c-0.4-0.4-0.9-0.6-1.5-0.6h-4.2c-0.6,0-1.1,0.2-1.5,0.6C25.2,38.5,25,39,25,39.6v37.5c0,0.6,0.2,1.1,0.6,1.5
	C26,79.1,26.5,79.3,27.1,79.3L27.1,79.3z M27.1,79.3 M43.8,79.3H48c0.6,0,1.1-0.2,1.5-0.6c0.4-0.4,0.6-0.9,0.6-1.5V39.6
	c0-0.6-0.2-1.1-0.6-1.5c-0.4-0.4-0.9-0.6-1.5-0.6h-4.2c-0.6,0-1.1,0.2-1.5,0.6c-0.4,0.4-0.6,0.9-0.6,1.5v37.5c0,0.6,0.2,1.1,0.6,1.5
	C42.7,79.1,43.2,79.3,43.8,79.3L43.8,79.3z M43.8,79.3 M60.5,79.3h4.2c0.6,0,1.1-0.2,1.5-0.6c0.4-0.4,0.6-0.9,0.6-1.5V39.6
	c0-0.6-0.2-1.1-0.6-1.5c-0.4-0.4-0.9-0.6-1.5-0.6h-4.2c-0.6,0-1.1,0.2-1.5,0.6c-0.4,0.4-0.6,0.9-0.6,1.5v37.5c0,0.6,0.2,1.1,0.6,1.5
	C59.4,79.1,59.9,79.3,60.5,79.3L60.5,79.3z M60.5,79.3"/>
</svg>
